# xmcd
#
# Track frame offsets: 
#        150
#        16917
#        32506
#        49754
#        75909
#        94407
#        110981
#        121403
#        131039
#        142982
#        155741
#        176382
#        192067
#
# Disc length: 2814 seconds
#
# Revision: 0
# Processed by: cddbd v1.5.2PL0 Copyright (c) Steve Scherf et al.
# Submitted via: ExactAudioCopy v1.2
#
DISCID=a70afc0d
DTITLE=Harrison Kennedy - Who U Tellin'
DYEAR=2017
DGENRE=Blues
TTITLE0=Who U Tellin'?
TTITLE1=Afraid to Fail
TTITLE2=Can U Feel Me Now?
TTITLE3=Heavy Load
TTITLE4=Blues Solution
TTITLE5=Keep Your Coat On
TTITLE6=County Party Line
TTITLE7=Mountain Stomp
TTITLE8=Long Pants
TTITLE9=Hummin' Blues
TTITLE10=Doctors in Hard Hats
TTITLE11=Takin' It Back
TTITLE12=Patches
EXTD=
EXTT0=
EXTT1=
EXTT2=
EXTT3=
EXTT4=
EXTT5=
EXTT6=
EXTT7=
EXTT8=
EXTT9=
EXTT10=
EXTT11=
EXTT12=
PLAYORDER=
